# xmcd
#
# Track frame offsets:
#	182
#	12527
#	31252
#	46825
#	62235
#	81795
#	98612
#	116662
#	133092
#	147902
#
# Disc length: 2206 seconds
#
# Revision: 3
# Processed by: cddbd v1.5.2PL0 Copyright (c) Steve Scherf et al.
# Submitted via: EasyCDDAExtractor 15.3.0.1
#
DISCID=83089c0a
DTITLE=Cher - Take Me Home
DYEAR=1999
DGENRE=Pop
TTITLE0=Bang Bang (My Baby Shot Me Down)
TTITLE1=You Better Sit Down Kids
TTITLE2=Take Me Home
TTITLE3=Pain In My Heart
TTITLE4=Wasn't It Good
TTITLE5=Git Down (Guitar Groupie)
TTITLE6=Happy Was The Day We Met
TTITLE7=It's Too Late To Love Me Now
TTITLE8=Let This Be A Lesson To You
TTITLE9=My Song (Too Far Gone)
EXTD=
EXTT0=
EXTT1=
EXTT2=
EXTT3=
EXTT4=
EXTT5=
EXTT6=
EXTT7=
EXTT8=
EXTT9=
PLAYORDER=
